<svg width="60" height="60" viewBox="0 0 60 60" fill="none" xmlns="http://www.w3.org/2000/svg">
<path d="M54.3184 47.6157H5.68086C3.60898 47.6157 1.91211 45.9282 1.91211 43.847V12.6657C1.91211 10.5845 3.59961 8.89697 5.68086 8.89697H54.3184C56.3902 8.89697 58.0871 10.5845 58.0871 12.6657V43.847C58.0871 45.9188 56.3902 47.6157 54.3184 47.6157ZM5.68086 10.772C4.64023 10.772 3.78711 11.6251 3.78711 12.6657V43.847C3.78711 44.8876 4.64023 45.7407 5.68086 45.7407H54.3184C55.359 45.7407 56.2121 44.8876 56.2121 43.847V12.6657C56.2121 11.6251 55.359 10.772 54.3184 10.772H5.68086Z" fill="white"/>
<path d="M36.2336 42.9657H12.2055C8.71797 42.9657 5.88672 40.1345 5.88672 36.647V19.4345C5.88672 15.947 8.71797 13.1157 12.2055 13.1157H36.2336C39.7211 13.1157 42.5523 15.947 42.5523 19.4345V36.647C42.5523 40.1345 39.7117 42.9657 36.2336 42.9657ZM12.2055 14.9907C9.75859 14.9907 7.76172 16.9876 7.76172 19.4345V36.647C7.76172 39.0938 9.75859 41.0907 12.2055 41.0907H36.2336C38.6805 41.0907 40.6773 39.0938 40.6773 36.647V19.4345C40.6773 16.9876 38.6805 14.9907 36.2336 14.9907H12.2055Z" fill="white"/>
<path d="M53.165 15.7876H45.9463C45.4307 15.7876 45.0088 15.3657 45.0088 14.8501C45.0088 14.3345 45.4307 13.9126 45.9463 13.9126H53.165C53.6807 13.9126 54.1025 14.3345 54.1025 14.8501C54.1025 15.3657 53.69 15.7876 53.165 15.7876Z" fill="white"/>
<path d="M53.165 19.0596H45.9463C45.4307 19.0596 45.0088 18.6377 45.0088 18.1221C45.0088 17.6064 45.4307 17.1846 45.9463 17.1846H53.165C53.6807 17.1846 54.1025 17.6064 54.1025 18.1221C54.1025 18.6377 53.69 19.0596 53.165 19.0596Z" fill="white"/>
<path d="M53.165 22.3408H45.9463C45.4307 22.3408 45.0088 21.9189 45.0088 21.4033C45.0088 20.8877 45.4307 20.4658 45.9463 20.4658H53.165C53.6807 20.4658 54.1025 20.8877 54.1025 21.4033C54.1025 21.9189 53.69 22.3408 53.165 22.3408Z" fill="white"/>
<path d="M53.165 25.7812H45.9463C45.4307 25.7812 45.0088 25.3594 45.0088 24.8438C45.0088 24.3281 45.4307 23.9062 45.9463 23.9062H53.165C53.6807 23.9062 54.1025 24.3281 54.1025 24.8438C54.1025 25.3594 53.69 25.7812 53.165 25.7812Z" fill="white"/>
<path d="M49.565 34.1718C47.5682 34.1718 45.9463 32.6343 45.9463 30.7312C45.9463 28.828 47.5682 27.2905 49.565 27.2905C51.5619 27.2905 53.1838 28.828 53.1838 30.7312C53.1838 32.6343 51.5619 34.1718 49.565 34.1718ZM49.565 29.1749C48.5994 29.1749 47.8213 29.878 47.8213 30.7405C47.8213 31.603 48.5994 32.3062 49.565 32.3062C50.5307 32.3062 51.3088 31.603 51.3088 30.7405C51.3088 29.878 50.5213 29.1749 49.565 29.1749Z" fill="white"/>
<path d="M49.5648 41.8594C47.6055 41.8594 46.0117 40.35 46.0117 38.4844C46.0117 36.6281 47.6055 35.1094 49.5648 35.1094C51.5242 35.1094 53.118 36.6187 53.118 38.4844C53.1086 40.35 51.5242 41.8594 49.5648 41.8594ZM49.5648 36.9937C48.6367 36.9937 47.8867 37.6688 47.8867 38.4938C47.8867 39.3188 48.6367 39.9937 49.5648 39.9937C50.493 39.9937 51.243 39.3188 51.243 38.4938C51.2336 37.6594 50.4836 36.9937 49.5648 36.9937Z" fill="white"/>
<path d="M17.5316 51.1032H13.2191C11.391 51.1032 9.90039 49.6126 9.90039 47.7845V46.6782C9.90039 46.1626 10.3223 45.7407 10.8379 45.7407H19.9129C20.4285 45.7407 20.8504 46.1626 20.8504 46.6782V47.7845C20.8504 49.6126 19.3598 51.1032 17.5316 51.1032ZM11.766 47.6157V47.7845C11.766 48.5813 12.4129 49.2282 13.2098 49.2282H17.5223C18.3191 49.2282 18.966 48.5813 18.966 47.7845V47.6157H11.766Z" fill="white"/>
<path d="M46.7816 51.1032H42.4691C40.641 51.1032 39.1504 49.6126 39.1504 47.7845V46.6782C39.1504 46.1626 39.5723 45.7407 40.0879 45.7407H49.1723C49.6879 45.7407 50.1098 46.1626 50.1098 46.6782V47.7845C50.1098 49.6126 48.6191 51.1032 46.7816 51.1032ZM41.0254 47.6157V47.7845C41.0254 48.5813 41.6723 49.2282 42.4691 49.2282H46.7816C47.5785 49.2282 48.2254 48.5813 48.2254 47.7845V47.6157H41.0254Z" fill="white"/>
</svg>
