<svg width="61" height="60" viewBox="0 0 61 60" fill="none" xmlns="http://www.w3.org/2000/svg">
<g clip-path="url(#clip0_1887_270)">
<path d="M30.3115 28.2676C29.8178 28.2676 29.4177 28.6612 29.4177 29.1467V34.5214C29.4177 42.0025 23.2299 48.0888 15.6241 48.0888C8.01836 48.0888 1.83055 42.0025 1.83055 34.5214V29.1467C1.83055 28.6612 1.43036 28.2676 0.936762 28.2676C0.443162 28.2676 0.0429688 28.6612 0.0429688 29.1467V34.5214C0.0429688 41.8449 5.2929 47.984 12.285 49.4916L11.7243 53.6199H7.95367C5.52987 53.6199 3.55774 55.5596 3.55774 57.9438C3.55774 59.0776 4.49549 60.0001 5.64818 60.0001H25.5999C26.7526 60.0001 27.6905 59.0777 27.6905 57.9438C27.6905 55.5596 25.7185 53.6199 23.2945 53.6199H19.5239L18.9632 49.4916C25.9553 47.9839 31.2053 41.8448 31.2053 34.5214V29.1467C31.2054 28.6612 30.8052 28.2676 30.3115 28.2676ZM25.9028 57.9439C25.9028 58.1082 25.767 58.2418 25.5999 58.2418H5.64818C5.48126 58.2418 5.34544 58.1082 5.34544 57.9439C5.34544 56.5293 6.51552 55.3784 7.95367 55.3784H23.2945C24.7326 55.3784 25.9028 56.5293 25.9028 57.9439ZM17.7205 53.62H13.5278L14.0507 49.7695C14.5682 49.8208 15.0931 49.8472 15.6241 49.8472C16.1551 49.8472 16.68 49.8207 17.1976 49.7694L17.7205 53.62Z" fill="white"/>
<path d="M36.8039 7.71971H54.6809C55.1746 7.71971 55.5747 7.32607 55.5747 6.84057C55.5747 6.35506 55.1746 5.96143 54.6809 5.96143H36.8039C36.3102 5.96143 35.9102 6.35506 35.9102 6.84057C35.9102 7.32607 36.3103 7.71971 36.8039 7.71971Z" fill="white"/>
<path d="M36.8039 14.375H54.6809C55.1746 14.375 55.5747 13.9813 55.5747 13.4958C55.5747 13.0103 55.1746 12.6167 54.6809 12.6167H36.8039C36.3102 12.6167 35.9102 13.0103 35.9102 13.4958C35.9102 13.9813 36.3103 14.375 36.8039 14.375Z" fill="white"/>
<path d="M6.91423 39.8939C7.34803 39.6621 7.50863 39.1283 7.27309 38.7017C6.52357 37.3446 6.12743 35.805 6.12743 34.2495V32.884H25.122V34.2495C25.122 39.4005 20.8614 43.5911 15.6247 43.5911C13.4888 43.5911 11.4716 42.9102 9.79136 41.622C9.40225 41.3235 8.8405 41.3919 8.53693 41.7749C8.23336 42.1579 8.30294 42.7103 8.69241 43.0088C10.6896 44.5401 13.0868 45.3495 15.6247 45.3495C21.8473 45.3495 26.9097 40.3701 26.9097 34.2495C26.9097 32.1026 26.9097 21.6881 26.9097 19.8808C26.9097 13.7603 21.8473 8.78076 15.6247 8.78076C9.40225 8.78076 4.33984 13.7602 4.33984 19.8808V34.2495C4.33984 36.0973 4.81093 37.9271 5.70222 39.541C5.93788 39.9678 6.48021 40.1257 6.91423 39.8939ZM15.6246 10.5392C20.2093 10.5392 24.0455 13.7512 24.9298 18.0074H19.2159C18.7221 18.0074 18.3221 18.401 18.3221 18.8865C18.3221 19.3721 18.7223 19.7657 19.2159 19.7657H25.1189C25.1194 19.8041 25.1219 19.8421 25.1219 19.8806V22.0965H19.2159C18.7221 22.0965 18.3221 22.4902 18.3221 22.9757C18.3221 23.4612 18.7223 23.8548 19.2159 23.8548H25.1219V26.1857H19.2159C18.7221 26.1857 18.3221 26.5793 18.3221 27.0648C18.3221 27.5503 18.7223 27.944 19.2159 27.944H25.1219V31.1253H6.12743V27.944H12.0333C12.5271 27.944 12.9271 27.5503 12.9271 27.0648C12.9271 26.5793 12.5269 26.1857 12.0333 26.1857H6.12743V23.8548H12.0333C12.5271 23.8548 12.9271 23.4612 12.9271 22.9757C12.9271 22.4902 12.5269 22.0965 12.0333 22.0965H6.12743V19.8808C6.12743 19.8422 6.12993 19.8042 6.13041 19.7658H12.0333C12.5271 19.7658 12.9271 19.3722 12.9271 18.8867C12.9271 18.4012 12.5269 18.0075 12.0333 18.0075H6.31937C7.20387 13.7512 11.04 10.5392 15.6246 10.5392Z" fill="white"/>
<path d="M53.8682 0H36.5046C32.597 0 29.418 3.12691 29.418 6.97043V8.57426C29.418 9.05976 29.8182 9.4534 30.3118 9.4534C30.8055 9.4534 31.2056 9.05976 31.2056 8.57426V6.97043C31.2056 4.09652 33.5826 1.7584 36.5045 1.7584H53.8681C56.7899 1.7584 59.1669 4.09652 59.1669 6.97043V14.2882C59.1669 17.1621 56.7898 19.5002 53.8681 19.5002H43.8768C42.9933 19.5002 42.1556 19.9198 41.6358 20.6227L37.3935 26.3604V22.0072C37.3935 20.7368 36.5267 19.6489 35.2859 19.3618C32.8834 18.806 31.2057 16.7197 31.2057 14.2882V12.6844C31.2057 12.1989 30.8055 11.8052 30.3119 11.8052C29.8182 11.8052 29.4181 12.1989 29.4181 12.6844V14.2882C29.4181 17.5397 31.6627 20.3299 34.8768 21.0735C35.2993 21.1712 35.606 21.5639 35.606 22.0071V27.3584C35.606 28.7437 37.4141 29.3222 38.2426 28.2016L43.0819 21.6567C43.2662 21.4073 43.5635 21.2584 43.877 21.2584H53.8684C57.7759 21.2584 60.9548 18.1315 60.9548 14.288V6.97043C60.9547 3.12691 57.7757 0 53.8682 0Z" fill="white"/>
</g>
<defs>
<clipPath id="clip0_1887_270">
<rect width="61" height="60" fill="white"/>
</clipPath>
</defs>
</svg>
