<svg width="60" height="60" viewBox="0 0 60 60" fill="none" xmlns="http://www.w3.org/2000/svg">
<g clip-path="url(#clip0_1887_244)">
<path d="M56.1963 2.34729L55.229 2.10646C44.5102 -0.562829 33.3004 -0.562829 22.5815 2.10646L21.6153 2.34729C19.3776 2.90401 17.8075 4.91455 17.81 7.22038V14.2149C12.8162 15.6295 8.00151 17.6145 3.46196 20.1308L2.58495 20.6139C0.567534 21.7283 -0.427685 24.0768 0.174155 26.3017L3.09752 37.2329C5.73296 47.0439 12.9855 54.9536 22.531 58.4288L25.5446 59.5339C29.1194 60.8195 33.1164 59.7463 35.566 56.8425L37.6236 54.3846C39.539 52.1058 41.1111 49.5596 42.2907 46.8261C42.9239 46.5803 43.5277 46.2625 44.0898 45.8799L46.7174 44.0405C55.0387 38.21 59.9957 28.689 60.0006 18.5283V7.22038C60.003 4.91504 58.4335 2.9045 56.1963 2.34729ZM36.0854 53.0936L34.0273 55.5535C32.1212 57.8117 29.0125 58.6466 26.2318 57.646L23.2182 56.5414C14.2887 53.2898 7.50415 45.8902 5.03842 36.7125L2.11407 25.7813C1.75405 24.4481 2.35 23.0419 3.55859 22.3738L4.43461 21.8907C8.673 19.5407 13.1586 17.6675 17.81 16.3054V18.5283C17.8169 27.5265 21.7129 36.0817 28.495 41.9947C26.7282 42.7128 24.8628 43.1611 22.9622 43.3234L15.408 43.9361C14.9509 43.9724 14.5761 44.3137 14.4977 44.766C14.4192 45.2182 14.6571 45.666 15.0755 45.8539L25.0899 50.3743C27.2707 51.3627 29.8458 50.674 31.2427 48.7287L33.4343 45.6803L33.7207 45.8809C35.2408 46.9423 37.0512 47.5108 38.9053 47.5084C39.2065 47.5084 39.4978 47.4701 39.7941 47.4412C38.7851 49.465 37.5402 51.3622 36.0854 53.0936ZM30.2662 43.4259C30.5404 43.6271 30.8077 43.8438 31.0897 44.0405L31.7852 44.5271L29.6074 47.5574C28.7687 48.7233 27.2236 49.1353 25.9155 48.5418L19.4492 45.6288L23.124 45.3276C25.5981 45.1201 28.0163 44.4766 30.2662 43.4259ZM57.9915 18.5283C57.9876 28.0337 53.3504 36.9396 45.5662 42.3944L42.9386 44.2338C40.5146 45.9226 37.2955 45.9226 34.8719 44.2338L32.2453 42.3944C24.4606 36.9401 19.823 28.0337 19.8191 18.5283V7.22038C19.8191 5.83767 20.7598 4.63252 22.1013 4.29702L23.0686 4.0552C33.4676 1.46489 44.3429 1.46489 54.742 4.0552L55.7092 4.29702C57.0503 4.63252 57.9915 5.83767 57.9915 7.22038V18.5283Z" fill="white"/>
<path d="M35.1802 18.8571L36.5501 17.3866C33.4095 14.2533 28.3255 14.2533 25.1848 17.3866L25.1348 17.4366L26.6053 18.8071C27.7442 17.6676 29.2922 17.0315 30.903 17.0408C32.5143 17.0506 34.0545 17.7044 35.1802 18.8571Z" fill="white"/>
<path d="M41.259 17.3866L41.209 17.4366L42.6795 18.8071C43.8184 17.6676 45.3664 17.0315 46.9772 17.0408C48.5885 17.0506 50.1287 17.7044 51.2544 18.8571L52.6243 17.3866C49.4837 14.2533 44.3997 14.2533 41.259 17.3866Z" fill="white"/>
<path d="M14.3248 33.4157C15.8954 32.9944 17.5695 33.2254 18.9669 34.0563L19.9033 32.2773C16.0597 30.0582 11.145 31.3747 8.92545 35.2178L8.89062 35.2791L9.7593 35.7814L10.6633 36.2213C11.4598 34.8342 12.7783 33.8238 14.3248 33.4157Z" fill="white"/>
<path d="M49.7751 28.2082L42.3205 29.5644C40.0623 29.9764 37.7481 29.9764 35.4899 29.5644L28.0338 28.2082C27.5835 28.1263 27.1342 28.3593 26.9425 28.7752C26.7502 29.1911 26.8635 29.6841 27.2181 29.974L35.7248 36.9317C37.5769 38.4395 40.2335 38.4395 42.0856 36.9317L50.5908 29.972C50.9454 29.6821 51.0592 29.1892 50.867 28.7732C50.6752 28.3573 50.2259 28.1243 49.7751 28.2062V28.2082ZM40.8137 35.3783C39.7027 36.2842 38.1076 36.2842 36.9967 35.3783L31.4977 30.8799L35.1308 31.5401C37.626 31.9963 40.1824 31.9963 42.6771 31.5401L46.3107 30.8799L40.8137 35.3783Z" fill="white"/>
</g>
<defs>
<clipPath id="clip0_1887_244">
<rect width="60" height="60" fill="white"/>
</clipPath>
</defs>
</svg>
