<svg width="60" height="60" viewBox="0 0 60 60" fill="none" xmlns="http://www.w3.org/2000/svg">
<g clip-path="url(#clip0_1887_285)">
<path d="M12.6562 60H47.3438C50.6992 59.9962 53.9162 58.6616 56.2889 56.2889C58.6616 53.9162 59.9962 50.6992 60 47.3438V12.6562C59.9962 9.30077 58.6616 6.0838 56.2889 3.71111C53.9162 1.33842 50.6992 0.00378405 47.3438 0L12.6562 0C9.30077 0.00378405 6.0838 1.33842 3.71111 3.71111C1.33842 6.0838 0.00378405 9.30077 0 12.6562L0 47.3438C0.00378405 50.6992 1.33842 53.9162 3.71111 56.2889C6.0838 58.6616 9.30077 59.9962 12.6562 60ZM58.125 12.6562V18.5521H46.7879L37.7442 1.875H47.3438C50.2022 1.8781 52.9426 3.01498 54.9638 5.03618C56.985 7.05739 58.1219 9.79784 58.125 12.6562ZM24.3886 18.5521L15.3449 1.875H35.6114L44.6551 18.5521H24.3886ZM12.6562 1.875H13.2121L22.2558 18.5521H1.875V12.6562C1.8781 9.79784 3.01498 7.05739 5.03618 5.03618C7.05739 3.01498 9.79784 1.8781 12.6562 1.875ZM1.875 20.4271H58.125V47.3438C58.1219 50.2022 56.985 52.9426 54.9638 54.9638C52.9426 56.985 50.2022 58.1219 47.3438 58.125H12.6562C9.79784 58.1219 7.05739 56.985 5.03618 54.9638C3.01498 52.9426 1.8781 50.2022 1.875 47.3438V20.4271ZM24.1966 51.603C24.3472 51.6828 24.5166 51.72 24.6867 51.7107C24.8568 51.7014 25.0212 51.6459 25.1621 51.5502L42.0957 40.0515C42.2223 39.9656 42.3259 39.85 42.3975 39.7148C42.4691 39.5796 42.5065 39.429 42.5065 39.276C42.5065 39.123 42.4691 38.9724 42.3975 38.8372C42.3259 38.702 42.2223 38.5864 42.0957 38.5004L25.1621 27.0019C25.0212 26.9062 24.8569 26.8507 24.6868 26.8414C24.5166 26.8321 24.3472 26.8693 24.1967 26.949C24.0461 27.0288 23.9202 27.148 23.8323 27.294C23.7444 27.4399 23.698 27.6071 23.698 27.7774V50.7745C23.698 50.9449 23.7444 51.1121 23.8323 51.258C23.9201 51.404 24.0461 51.5233 24.1966 51.603ZM25.573 29.5472L39.9004 39.276L25.573 49.0048V29.5472Z" fill="white"/>
</g>
<defs>
<clipPath id="clip0_1887_285">
<rect width="60" height="60" fill="white"/>
</clipPath>
</defs>
</svg>
