<svg width="54" height="60" viewBox="0 0 54 60" fill="none" xmlns="http://www.w3.org/2000/svg">
<path fill-rule="evenodd" clip-rule="evenodd" d="M52.2644 24.2198H12.2833L50.6856 13.0952C50.9841 13.0087 51.2358 12.8069 51.386 12.5349C51.5361 12.2626 51.5718 11.9421 51.4853 11.6437L49.4757 4.70627C48.6728 1.93542 46.0928 0 43.2016 0C42.5923 0 41.9853 0.0865173 41.3967 0.256805L5.34089 10.7016C3.67326 11.1845 2.29127 12.2932 1.44853 13.8226C0.606242 15.352 0.408488 17.113 0.891428 18.7802L2.85478 25.5579V53.4782C2.85478 57.0744 5.78034 60 9.37608 60H23.4578C24.1051 60 24.6297 59.4754 24.6297 58.8281C24.6297 58.1808 24.1051 57.6562 23.4578 57.6562H9.37654C7.07261 57.6562 5.19853 55.7822 5.19853 53.4782V37.5307H11.2021H11.2048H11.2071H20.3844H20.3871H20.3899H29.5671H29.5699H29.5726H38.7499H38.7526H38.7549H51.0925V53.4782C51.0925 55.7822 49.2185 57.6562 46.9145 57.6562H32.8328C32.186 57.6562 31.6609 58.1808 31.6609 58.8281C31.6609 59.4754 32.186 60 32.8328 60H46.9145C50.5107 60 53.4363 57.0744 53.4363 53.4782V25.3917C53.4363 24.7444 52.9117 24.2198 52.2644 24.2198ZM31.6005 35.1869L36.5796 26.5636H43.0556L38.077 35.1869H31.6005ZM22.4178 35.1869L27.3969 26.5636H33.8728L28.8942 35.1869H22.4178ZM13.2355 35.1869L18.2141 26.5636H24.6906L19.7115 35.1869H13.2355ZM17.5925 20.0162L9.25477 12.0081L15.5019 10.1985C15.5458 10.2626 15.5971 10.323 15.6557 10.3793L23.9934 18.3875L17.7463 20.197C17.7023 20.1329 17.6506 20.072 17.5925 20.0162ZM33.2956 5.26932L41.6333 13.2774L35.3862 15.087C35.3423 15.0229 35.291 14.962 35.2324 14.9062L26.8947 6.89804L33.1418 5.0885C33.1857 5.15259 33.237 5.21301 33.2956 5.26932ZM24.4754 7.82455L32.8131 15.8322L26.566 17.6422C26.5221 17.5781 26.4708 17.5172 26.4122 17.4614L18.0745 9.45328L24.3216 7.64374C24.366 7.70737 24.4173 7.76825 24.4754 7.82455ZM42.049 2.50809C42.4252 2.39914 42.813 2.34375 43.2016 2.34375C45.056 2.34375 46.7099 3.58337 47.2244 5.35858L48.9081 11.1699L44.2064 12.5317C44.162 12.4677 44.1107 12.4072 44.0521 12.3509L35.7149 4.34326L42.049 2.50809ZM3.5016 14.9533C4.04176 13.9723 4.92662 13.2619 5.99321 12.9529L6.68168 12.7533C6.72608 12.8174 6.77735 12.8783 6.83549 12.9341L15.1732 20.9422L4.82637 23.9397L3.14271 18.1284C2.83372 17.0622 2.96144 15.9348 3.5016 14.9533ZM5.19853 26.5636H15.5078L10.5292 35.1869H5.19853V26.5636ZM40.7832 35.1869L45.7619 26.5636H51.0925V35.1869H40.7832Z" fill="white"/>
<path fill-rule="evenodd" clip-rule="evenodd" d="M36.2487 47.4742C36.2487 47.0554 36.0253 46.6686 35.6628 46.4594L25.3672 40.5153C25.0046 40.3061 24.5579 40.3061 24.1953 40.5153C23.8328 40.7245 23.6094 41.1113 23.6094 41.5302V53.4183C23.6094 53.8367 23.8328 54.2235 24.1953 54.4327C24.3766 54.5375 24.5789 54.5902 24.7812 54.5902C24.9836 54.5902 25.1859 54.5375 25.3672 54.4327L35.6628 48.4891C36.0253 48.2799 36.2487 47.8931 36.2487 47.4742ZM25.9531 51.3886V43.5599L32.7331 47.4742L25.9531 51.3886Z" fill="white"/>
<path fill-rule="evenodd" clip-rule="evenodd" d="M28.1455 57.6562C27.5001 57.6562 26.9736 58.1827 26.9736 58.8281C26.9736 59.4736 27.5001 60 28.1455 60C28.7914 60 29.3174 59.4736 29.3174 58.8281C29.3174 58.1827 28.7914 57.6562 28.1455 57.6562Z" fill="white"/>
</svg>
