<svg width="14" height="14" viewBox="0 0 14 14" fill="none" xmlns="http://www.w3.org/2000/svg">
<path d="M7.00017 0.583496C5.73107 0.583496 4.49047 0.959827 3.43526 1.6649C2.38004 2.36997 1.5576 3.37212 1.07194 4.54461C0.586276 5.7171 0.459205 7.00728 0.706793 8.25199C0.954382 9.4967 1.56551 10.64 2.4629 11.5374C3.36028 12.4348 4.50362 13.0459 5.74834 13.2935C6.99305 13.5411 8.28323 13.4141 9.45572 12.9284C10.6282 12.4427 11.6304 11.6203 12.3354 10.5651C13.0405 9.50986 13.4168 8.26926 13.4168 7.00016C13.4148 5.29897 12.7381 3.66803 11.5352 2.46511C10.3323 1.26219 8.70135 0.585503 7.00017 0.583496ZM9.16258 9.16258C9.05319 9.27194 8.90484 9.33337 8.75016 9.33337C8.59549 9.33337 8.44714 9.27194 8.33775 9.16258L6.58775 7.41258C6.47834 7.30321 6.41686 7.15486 6.41683 7.00016V3.50016C6.41683 3.34545 6.47829 3.19708 6.58769 3.08768C6.69708 2.97829 6.84546 2.91683 7.00017 2.91683C7.15487 2.91683 7.30325 2.97829 7.41264 3.08768C7.52204 3.19708 7.5835 3.34545 7.5835 3.50016V6.75866L9.16258 8.33775C9.27194 8.44714 9.33337 8.59548 9.33337 8.75016C9.33337 8.90484 9.27194 9.05319 9.16258 9.16258Z" fill="#ffffff"/>
</svg>
