<svg width="20" height="19" viewBox="0 0 20 19" fill="none" xmlns="http://www.w3.org/2000/svg">
<path d="M18.752 13.943C20.6847 11.2314 20.3893 7.51637 17.7495 5.09641C16.5434 3.99074 15.0057 3.30242 13.3448 3.1102C13.3344 3.09727 13.3236 3.08479 13.3122 3.07277C11.8673 1.5718 9.79133 0.710938 7.61672 0.710938C3.47848 0.710938 0 3.79426 0 7.74219C0 9.12637 0.429961 10.4533 1.24672 11.5993L0.105742 15.1815C0.0706615 15.2916 0.0689221 15.4096 0.100743 15.5207C0.132563 15.6318 0.196522 15.731 0.284576 15.8058C0.37263 15.8807 0.480845 15.9278 0.595611 15.9413C0.710377 15.9548 0.826568 15.934 0.92957 15.8816L4.39937 14.1173C5.11195 14.4241 5.86758 14.6255 6.65008 14.7171C8.15953 16.3044 10.2467 17.1172 12.382 17.1172C13.492 17.1172 14.598 16.891 15.5992 16.461L19.0692 18.2254C19.1514 18.2673 19.2424 18.2891 19.3346 18.2891C19.73 18.2891 20.0135 17.9037 19.893 17.5253L18.752 13.943ZM4.63586 12.9383C4.5549 12.8999 4.46621 12.8805 4.37659 12.8817C4.28697 12.8829 4.19883 12.9047 4.11895 12.9453L1.64758 14.202L2.45461 11.6681C2.48356 11.5773 2.48989 11.4807 2.47305 11.3869C2.45622 11.293 2.41673 11.2047 2.35801 11.1295C1.58199 10.1362 1.1718 8.96488 1.1718 7.74219C1.1718 4.51133 4.06297 1.88281 7.61672 1.88281C9.04781 1.88281 10.4255 2.31637 11.543 3.09711C7.77945 3.47555 4.76531 6.41516 4.76531 10.0859C4.76531 11.2277 5.05797 12.3268 5.60973 13.3116C5.276 13.2123 4.95042 13.0876 4.63586 12.9383ZM15.8798 15.289C15.7999 15.2484 15.7118 15.2267 15.6222 15.2254C15.5325 15.2242 15.4438 15.2436 15.3629 15.2821C14.4494 15.716 13.4187 15.9453 12.382 15.9453C8.82828 15.9453 5.93711 13.3168 5.93711 10.0859C5.93711 6.85508 8.82828 4.22656 12.382 4.22656C15.9358 4.22656 18.827 6.85508 18.827 10.0859C18.827 11.3086 18.4168 12.4799 17.6407 13.4732C17.582 13.5484 17.5425 13.6367 17.5257 13.7306C17.5089 13.8244 17.5152 13.921 17.5441 14.0118L18.3511 16.5457L15.8798 15.289Z" fill="white"/>
<path d="M10 10.6719C10.3236 10.6719 10.5859 10.4095 10.5859 10.0859C10.5859 9.76233 10.3236 9.5 10 9.5C9.6764 9.5 9.41406 9.76233 9.41406 10.0859C9.41406 10.4095 9.6764 10.6719 10 10.6719Z" fill="white"/>
<path d="M12.3438 10.6719C12.6674 10.6719 12.9297 10.4095 12.9297 10.0859C12.9297 9.76233 12.6674 9.5 12.3438 9.5C12.0201 9.5 11.7578 9.76233 11.7578 10.0859C11.7578 10.4095 12.0201 10.6719 12.3438 10.6719Z" fill="white"/>
<path d="M14.6875 10.6719C15.0111 10.6719 15.2734 10.4095 15.2734 10.0859C15.2734 9.76233 15.0111 9.5 14.6875 9.5C14.3639 9.5 14.1016 9.76233 14.1016 10.0859C14.1016 10.4095 14.3639 10.6719 14.6875 10.6719Z" fill="white"/>
</svg>
