<svg width="224" height="50" viewBox="0 0 224 50" fill="none" xmlns="http://www.w3.org/2000/svg">
<path d="M85.3614 8.41496C85.5189 8.41496 85.6449 8.47795 85.7394 8.60393C85.8654 8.69841 85.9283 8.82439 85.9283 8.98187V14.5565C85.9283 14.7139 85.8654 14.8557 85.7394 14.9816C85.6449 15.0761 85.5189 15.1234 85.3614 15.1234H79.5034C79.3459 15.1234 79.2672 15.2021 79.2672 15.3596V40.9177C79.2672 41.0751 79.2042 41.2169 79.0782 41.3428C78.9837 41.4373 78.8577 41.4846 78.7003 41.4846H71.9919C71.8344 41.4846 71.6927 41.4373 71.5667 41.3428C71.4722 41.2169 71.425 41.0751 71.425 40.9177V15.3596C71.425 15.2021 71.3462 15.1234 71.1887 15.1234H65.5669C65.4094 15.1234 65.2677 15.0761 65.1417 14.9816C65.0472 14.8557 65 14.7139 65 14.5565V8.98187C65 8.82439 65.0472 8.69841 65.1417 8.60393C65.2677 8.47795 65.4094 8.41496 65.5669 8.41496H85.3614Z" fill="white"/>
<path d="M92.1337 14.8872C90.9684 14.8872 89.992 14.5092 89.2047 13.7533C88.4488 12.966 88.0709 11.9739 88.0709 10.7771C88.0709 9.54877 88.4488 8.55669 89.2047 7.80081C89.9605 7.04493 90.9369 6.66699 92.1337 6.66699C93.3305 6.66699 94.3068 7.04493 95.0627 7.80081C95.8501 8.55669 96.2438 9.54877 96.2438 10.7771C96.2438 11.9424 95.8501 12.9187 95.0627 13.7061C94.3068 14.4935 93.3305 14.8872 92.1337 14.8872ZM88.874 41.4846C88.7165 41.4846 88.5748 41.4373 88.4488 41.3428C88.3543 41.2169 88.3071 41.0751 88.3071 40.9177V17.6272C88.3071 17.4697 88.3543 17.3438 88.4488 17.2493C88.5748 17.1233 88.7165 17.0603 88.874 17.0603H95.5824C95.7399 17.0603 95.8658 17.1233 95.9603 17.2493C96.0863 17.3438 96.1493 17.4697 96.1493 17.6272V40.9177C96.1493 41.0751 96.0863 41.2169 95.9603 41.3428C95.8658 41.4373 95.7399 41.4846 95.5824 41.4846H88.874Z" fill="white"/>
<path d="M108.085 41.8625C105.093 41.8625 102.763 41.1539 101.093 39.7366C99.4243 38.2878 98.5896 36.2722 98.5896 33.6896V24.8553C98.5896 22.3987 99.4243 20.4303 101.093 18.95C102.794 17.4382 105.125 16.6824 108.085 16.6824C111.046 16.6824 113.361 17.4225 115.03 18.9028C116.699 20.383 117.534 22.3199 117.534 24.7136V25.7529C117.534 25.9104 117.471 26.0521 117.345 26.1781C117.25 26.2726 117.124 26.3198 116.967 26.3198L110.258 26.6032C109.881 26.6032 109.692 26.4143 109.692 26.0363V25.3277C109.692 24.7923 109.534 24.3356 109.219 23.9577C108.936 23.5797 108.558 23.3908 108.085 23.3908C107.581 23.3908 107.172 23.5797 106.857 23.9577C106.574 24.3356 106.432 24.8395 106.432 25.4694V33.0754C106.432 33.7053 106.574 34.2093 106.857 34.5872C107.172 34.9651 107.581 35.1541 108.085 35.1541C108.558 35.1541 108.936 34.9651 109.219 34.5872C109.534 34.2093 109.692 33.7368 109.692 33.1699V32.4613C109.692 32.3038 109.739 32.1778 109.833 32.0834C109.959 31.9574 110.101 31.8944 110.258 31.8944L116.967 31.9416C117.124 31.9416 117.25 32.0046 117.345 32.1306C117.471 32.2251 117.534 32.3511 117.534 32.5085V33.7841C117.534 36.3352 116.699 38.3193 115.03 39.7366C113.392 41.1539 111.077 41.8625 108.085 41.8625Z" fill="white"/>
<path d="M128.745 41.8625C125.879 41.8625 123.596 41.1854 121.895 39.8311C120.194 38.4453 119.344 36.6344 119.344 34.3982V34.1148C119.344 33.9573 119.391 33.8313 119.486 33.7368C119.611 33.6109 119.753 33.5479 119.911 33.5479H126.241C126.399 33.5479 126.525 33.6109 126.619 33.7368C126.745 33.8313 126.808 33.9573 126.808 34.1148V34.2093C126.808 34.7762 126.997 35.2328 127.375 35.5793C127.784 35.8942 128.225 36.0517 128.698 36.0517C129.139 36.0517 129.485 35.9257 129.737 35.6738C129.989 35.3903 130.115 35.0439 130.115 34.6344C130.115 34.0675 129.847 33.6423 129.312 33.3589C128.777 33.0439 127.926 32.6975 126.761 32.3196L125.721 31.9889C121.659 30.6031 119.627 28.0835 119.627 24.4301C119.627 22.0365 120.43 20.1468 122.037 18.761C123.643 17.3752 125.784 16.6824 128.462 16.6824C131.202 16.6824 133.39 17.4382 135.028 18.95C136.666 20.4303 137.485 22.3987 137.485 24.8553C137.485 25.2017 137.296 25.3749 136.918 25.3749H130.776C130.619 25.3749 130.477 25.3277 130.351 25.2332C130.257 25.1072 130.21 24.9655 130.21 24.808V24.4301C130.21 23.9262 130.068 23.5325 129.784 23.249C129.501 22.9341 129.123 22.7766 128.651 22.7766C128.178 22.7766 127.8 22.9498 127.517 23.2963C127.265 23.6112 127.139 23.9892 127.139 24.4301C127.139 25.123 127.454 25.6584 128.084 26.0363C128.714 26.4143 129.595 26.7922 130.729 27.1702C132.115 27.6426 133.312 28.1465 134.32 28.6819C135.327 29.1858 136.194 29.926 136.918 30.9023C137.642 31.8471 138.005 33.0597 138.005 34.54C138.005 36.8076 137.154 38.6028 135.453 39.9256C133.784 41.2169 131.548 41.8625 128.745 41.8625Z" fill="white"/>
<path d="M159.962 8.41496C160.119 8.41496 160.245 8.47795 160.34 8.60393C160.466 8.69841 160.529 8.82439 160.529 8.98187V14.5565C160.529 14.7139 160.466 14.8557 160.34 14.9816C160.245 15.0761 160.119 15.1234 159.962 15.1234H154.104C153.946 15.1234 153.868 15.2021 153.868 15.3596V40.9177C153.868 41.0751 153.805 41.2169 153.679 41.3428C153.584 41.4373 153.458 41.4846 153.301 41.4846H146.592C146.435 41.4846 146.293 41.4373 146.167 41.3428C146.073 41.2169 146.025 41.0751 146.025 40.9177V15.3596C146.025 15.2021 145.947 15.1234 145.789 15.1234H140.167C140.01 15.1234 139.868 15.0761 139.742 14.9816C139.648 14.8557 139.6 14.7139 139.6 14.5565V8.98187C139.6 8.82439 139.648 8.69841 139.742 8.60393C139.868 8.47795 140.01 8.41496 140.167 8.41496H159.962Z" fill="white"/>
<path d="M172.944 17.6272C172.944 17.4697 172.991 17.3438 173.086 17.2493C173.212 17.1233 173.353 17.0603 173.511 17.0603H180.219C180.377 17.0603 180.503 17.1233 180.597 17.2493C180.723 17.3438 180.786 17.4697 180.786 17.6272V40.9177C180.786 41.0751 180.723 41.2169 180.597 41.3428C180.503 41.4373 180.377 41.4846 180.219 41.4846H173.511C173.353 41.4846 173.212 41.4373 173.086 41.3428C172.991 41.2169 172.944 41.0751 172.944 40.9177V40.3035C172.944 40.209 172.912 40.1618 172.849 40.1618C172.786 40.1303 172.723 40.1618 172.66 40.2563C172.188 40.8547 171.605 41.2641 170.912 41.4846C170.251 41.7365 169.464 41.8625 168.55 41.8625C166.661 41.8625 165.086 41.2799 163.826 40.1145C162.566 38.9492 161.936 37.154 161.936 34.7289V17.6272C161.936 17.4697 161.984 17.3438 162.078 17.2493C162.204 17.1233 162.346 17.0603 162.503 17.0603H169.212C169.369 17.0603 169.495 17.1233 169.59 17.2493C169.716 17.3438 169.779 17.4697 169.779 17.6272V32.981C169.779 34.3982 170.283 35.1069 171.29 35.1069C171.826 35.1069 172.235 34.9179 172.519 34.54C172.802 34.162 172.944 33.6266 172.944 32.9337V17.6272Z" fill="white"/>
<path d="M195.955 16.6824C200.269 16.6824 202.427 19.4067 202.427 24.8553V33.6896C202.427 39.1382 200.269 41.8625 195.955 41.8625C194.128 41.8625 192.695 41.2011 191.656 39.8783C191.593 39.8153 191.53 39.7996 191.467 39.8311C191.404 39.8311 191.372 39.8783 191.372 39.9728V40.9177C191.372 41.0751 191.309 41.2169 191.183 41.3428C191.089 41.4373 190.963 41.4846 190.805 41.4846H184.097C183.939 41.4846 183.798 41.4373 183.672 41.3428C183.577 41.2169 183.53 41.0751 183.53 40.9177V8.98187C183.53 8.82439 183.577 8.69841 183.672 8.60393C183.798 8.47795 183.939 8.41496 184.097 8.41496H190.805C190.963 8.41496 191.089 8.47795 191.183 8.60393C191.309 8.69841 191.372 8.82439 191.372 8.98187V18.7138C191.372 18.7768 191.388 18.8083 191.419 18.8083C191.514 18.8083 191.703 18.6665 191.986 18.3831C192.994 17.2493 194.317 16.6824 195.955 16.6824ZM194.585 25.4694C194.585 24.8395 194.443 24.3356 194.159 23.9577C193.876 23.5797 193.498 23.3908 193.026 23.3908C192.522 23.3908 192.112 23.5797 191.797 23.9577C191.514 24.3356 191.372 24.8395 191.372 25.4694V33.0754C191.372 33.7053 191.514 34.2093 191.797 34.5872C192.112 34.9651 192.522 35.1541 193.026 35.1541C193.498 35.1541 193.876 34.9651 194.159 34.5872C194.443 34.2093 194.585 33.7053 194.585 33.0754V25.4694Z" fill="white"/>
<path d="M223.644 30.8551C223.644 31.0125 223.581 31.1543 223.456 31.2802C223.361 31.3747 223.235 31.422 223.078 31.422H212.779C212.621 31.422 212.543 31.5007 212.543 31.6582V33.0754C212.543 33.7053 212.684 34.2093 212.968 34.5872C213.283 34.9651 213.692 35.1541 214.196 35.1541C214.637 35.1541 214.999 34.9966 215.283 34.6817C215.566 34.3667 215.755 33.973 215.849 33.5006C215.881 33.1542 216.086 32.981 216.464 32.981L222.983 33.3589C223.141 33.3589 223.267 33.4219 223.361 33.5479C223.487 33.6423 223.534 33.7841 223.503 33.973C223.219 39.2327 220.117 41.8625 214.196 41.8625C211.204 41.8625 208.873 41.1539 207.204 39.7366C205.535 38.2878 204.7 36.2722 204.7 33.6896V24.8553C204.7 22.3987 205.535 20.4303 207.204 18.95C208.905 17.4382 211.235 16.6824 214.196 16.6824C217.157 16.6824 219.471 17.4225 221.141 18.9028C222.81 20.383 223.644 22.3672 223.644 24.8553V30.8551ZM214.196 23.3908C213.692 23.3908 213.283 23.5797 212.968 23.9577C212.684 24.3356 212.543 24.8395 212.543 25.4694V26.9339C212.543 27.0914 212.621 27.1702 212.779 27.1702H215.566C215.724 27.1702 215.802 27.0914 215.802 26.9339V25.4694C215.802 24.871 215.645 24.3829 215.33 24.0049C215.046 23.5955 214.668 23.3908 214.196 23.3908Z" fill="white"/>
<path d="M40.2344 35.1562H9.76562C4.38076 35.1562 0 30.7754 0 25.3906V9.76562C0 4.38086 4.38076 0 9.76562 0H40.2344C45.6192 0 50 4.38086 50 9.76562V25.3906C50 30.7754 45.6192 35.1562 40.2344 35.1562ZM9.76562 3.90625C6.53477 3.90625 3.90625 6.53477 3.90625 9.76562V25.3906C3.90625 28.6215 6.53477 31.25 9.76562 31.25H40.2344C43.4652 31.25 46.0938 28.6215 46.0938 25.3906V9.76562C46.0938 6.53477 43.4652 3.90625 40.2344 3.90625H9.76562Z" fill="white"/>
<path d="M23.0469 27.3438C20.893 27.3438 19.1406 25.5914 19.1406 23.4375V11.7188C19.1406 9.56484 20.893 7.8125 23.0469 7.8125C23.8988 7.8125 24.7089 8.08232 25.3894 8.59268L33.202 14.4521H33.2021C34.1812 15.1865 34.7656 16.3551 34.7656 17.5781C34.7656 18.8012 34.1812 19.9697 33.2021 20.7041L25.3895 26.5635C24.7089 27.0739 23.8988 27.3438 23.0469 27.3438ZM30.8582 17.5771L23.0457 11.7178L23.0469 23.4375L30.8582 17.5791" fill="white"/>
<path d="M5.85938 50C2.62852 50 0 47.3715 0 44.1406C0 40.9098 2.62852 38.2812 5.85938 38.2812C9.09023 38.2812 11.7188 40.9098 11.7188 44.1406C11.7188 47.3715 9.09023 50 5.85938 50ZM5.85938 42.1875C4.78242 42.1875 3.90625 43.0637 3.90625 44.1406C3.90625 45.2176 4.78242 46.0938 5.85938 46.0938C6.93633 46.0938 7.8125 45.2176 7.8125 44.1406C7.8125 43.0637 6.93633 42.1875 5.85938 42.1875Z" fill="white"/>
<path d="M48.0469 46.0938H17.5781C16.4994 46.0938 15.625 45.2193 15.625 44.1406C15.625 43.0619 16.4994 42.1875 17.5781 42.1875H48.0469C49.1256 42.1875 50 43.0619 50 44.1406C50 45.2193 49.1256 46.0938 48.0469 46.0938Z" fill="white"/>
</svg>
