<svg width="135" height="30" viewBox="0 0 135 30" fill="none" xmlns="http://www.w3.org/2000/svg">
<path d="M51.2169 5.04878C51.3113 5.04878 51.3869 5.08657 51.4436 5.16216C51.5192 5.21885 51.557 5.29444 51.557 5.38892V8.73368C51.557 8.82816 51.5192 8.9132 51.4436 8.98879C51.3869 9.04548 51.3113 9.07382 51.2169 9.07382H47.702C47.6075 9.07382 47.5603 9.12107 47.5603 9.21555V24.5504C47.5603 24.6449 47.5225 24.7299 47.4469 24.8055C47.3902 24.8622 47.3146 24.8905 47.2202 24.8905H43.1951C43.1006 24.8905 43.0156 24.8622 42.94 24.8055C42.8833 24.7299 42.855 24.6449 42.855 24.5504V9.21555C42.855 9.12107 42.8077 9.07382 42.7132 9.07382H39.3401C39.2457 9.07382 39.1606 9.04548 39.085 8.98879C39.0283 8.9132 39 8.82816 39 8.73368V5.38892C39 5.29444 39.0283 5.21885 39.085 5.16216C39.1606 5.08657 39.2457 5.04878 39.3401 5.04878H51.2169Z" fill="white"/>
<path d="M55.2802 8.9321C54.581 8.9321 53.9952 8.70533 53.5228 8.25181C53.0693 7.77938 52.8425 7.18413 52.8425 6.46605C52.8425 5.72907 53.0693 5.13382 53.5228 4.68029C53.9763 4.22676 54.5621 4 55.2802 4C55.9983 4 56.5841 4.22676 57.0376 4.68029C57.5101 5.13382 57.7463 5.72907 57.7463 6.46605C57.7463 7.16524 57.5101 7.75104 57.0376 8.22346C56.5841 8.69589 55.9983 8.9321 55.2802 8.9321ZM53.3244 24.8905C53.2299 24.8905 53.1449 24.8622 53.0693 24.8055C53.0126 24.7299 52.9842 24.6449 52.9842 24.5504V10.5761C52.9842 10.4816 53.0126 10.4061 53.0693 10.3494C53.1449 10.2738 53.2299 10.236 53.3244 10.236H57.3494C57.4439 10.236 57.5195 10.2738 57.5762 10.3494C57.6518 10.4061 57.6896 10.4816 57.6896 10.5761V24.5504C57.6896 24.6449 57.6518 24.7299 57.5762 24.8055C57.5195 24.8622 57.4439 24.8905 57.3494 24.8905H53.3244Z" fill="white"/>
<path d="M64.8512 25.1173C63.056 25.1173 61.6576 24.6921 60.6561 23.8418C59.6546 22.9725 59.1538 21.7631 59.1538 20.2136V14.913C59.1538 13.439 59.6546 12.258 60.6561 11.3698C61.6765 10.4627 63.0749 10.0092 64.8512 10.0092C66.6275 10.0092 68.0164 10.4533 69.018 11.3415C70.0195 12.2296 70.5203 13.3918 70.5203 14.8279V15.4515C70.5203 15.546 70.4825 15.6311 70.4069 15.7066C70.3502 15.7633 70.2746 15.7917 70.1801 15.7917L66.1551 15.9618C65.9283 15.9618 65.815 15.8484 65.815 15.6216V15.1964C65.815 14.8752 65.7205 14.6012 65.5315 14.3744C65.3614 14.1476 65.1347 14.0343 64.8512 14.0343C64.5489 14.0343 64.3032 14.1476 64.1142 14.3744C63.9442 14.6012 63.8591 14.9035 63.8591 15.2815V19.8451C63.8591 20.223 63.9442 20.5254 64.1142 20.7521C64.3032 20.9789 64.5489 21.0923 64.8512 21.0923C65.1347 21.0923 65.3614 20.9789 65.5315 20.7521C65.7205 20.5254 65.815 20.2419 65.815 19.9018V19.4766C65.815 19.3821 65.8433 19.3065 65.9 19.2498C65.9756 19.1742 66.0606 19.1364 66.1551 19.1364L70.1801 19.1648C70.2746 19.1648 70.3502 19.2026 70.4069 19.2782C70.4825 19.3349 70.5203 19.4104 70.5203 19.5049V20.2703C70.5203 21.8009 70.0195 22.9914 69.018 23.8418C68.0353 24.6921 66.6464 25.1173 64.8512 25.1173Z" fill="white"/>
<path d="M77.247 25.1173C75.5274 25.1173 74.1574 24.711 73.1369 23.8985C72.1165 23.067 71.6063 21.9804 71.6063 20.6387V20.4687C71.6063 20.3742 71.6346 20.2986 71.6913 20.2419C71.7669 20.1663 71.8519 20.1285 71.9464 20.1285H75.7447C75.8392 20.1285 75.9148 20.1663 75.9715 20.2419C76.0471 20.2986 76.0848 20.3742 76.0848 20.4687V20.5254C76.0848 20.8655 76.1982 21.1395 76.425 21.3474C76.6706 21.5363 76.9352 21.6308 77.2187 21.6308C77.4832 21.6308 77.6911 21.5552 77.8423 21.4041C77.9934 21.234 78.069 21.0261 78.069 20.7805C78.069 20.4403 77.9084 20.1852 77.5871 20.0151C77.2659 19.8262 76.7557 19.6183 76.0565 19.3915L75.4329 19.1931C72.9952 18.3617 71.7763 16.8499 71.7763 14.6579C71.7763 13.2217 72.2582 12.0879 73.222 11.2564C74.1857 10.425 75.4707 10.0092 77.0769 10.0092C78.721 10.0092 80.0343 10.4627 81.0169 11.3698C81.9996 12.258 82.4909 13.439 82.4909 14.913C82.4909 15.1208 82.3775 15.2248 82.1508 15.2248H78.4659C78.3714 15.2248 78.2863 15.1964 78.2107 15.1397C78.1541 15.0641 78.1257 14.9791 78.1257 14.8846V14.6579C78.1257 14.3555 78.0407 14.1193 77.8706 13.9492C77.7005 13.7603 77.4738 13.6658 77.1903 13.6658C76.9069 13.6658 76.6801 13.7697 76.51 13.9776C76.3588 14.1665 76.2833 14.3933 76.2833 14.6579C76.2833 15.0736 76.4722 15.3948 76.8502 15.6216C77.2281 15.8484 77.7572 16.0751 78.4375 16.3019C79.269 16.5854 79.9871 16.8877 80.5918 17.209C81.1965 17.5113 81.7161 17.9554 82.1508 18.5412C82.5854 19.1081 82.8027 19.8356 82.8027 20.7238C82.8027 22.0844 82.2925 23.1615 81.272 23.9552C80.2705 24.7299 78.9288 25.1173 77.247 25.1173Z" fill="white"/>
<path d="M95.9771 5.04878C96.0716 5.04878 96.1472 5.08657 96.2039 5.16216C96.2794 5.21885 96.3172 5.29444 96.3172 5.38892V8.73368C96.3172 8.82816 96.2794 8.9132 96.2039 8.98879C96.1472 9.04548 96.0716 9.07382 95.9771 9.07382H92.4623C92.3678 9.07382 92.3205 9.12107 92.3205 9.21555V24.5504C92.3205 24.6449 92.2828 24.7299 92.2072 24.8055C92.1505 24.8622 92.0749 24.8905 91.9804 24.8905H87.9554C87.8609 24.8905 87.7758 24.8622 87.7002 24.8055C87.6436 24.7299 87.6152 24.6449 87.6152 24.5504V9.21555C87.6152 9.12107 87.568 9.07382 87.4735 9.07382H84.1004C84.0059 9.07382 83.9209 9.04548 83.8453 8.98879C83.7886 8.9132 83.7602 8.82816 83.7602 8.73368V5.38892C83.7602 5.29444 83.7886 5.21885 83.8453 5.16216C83.9209 5.08657 84.0059 5.04878 84.1004 5.04878H95.9771Z" fill="white"/>
<path d="M103.766 10.5761C103.766 10.4816 103.795 10.4061 103.851 10.3494C103.927 10.2738 104.012 10.236 104.106 10.236H108.132C108.226 10.236 108.302 10.2738 108.358 10.3494C108.434 10.4061 108.472 10.4816 108.472 10.5761V24.5504C108.472 24.6449 108.434 24.7299 108.358 24.8055C108.302 24.8622 108.226 24.8905 108.132 24.8905H104.106C104.012 24.8905 103.927 24.8622 103.851 24.8055C103.795 24.7299 103.766 24.6449 103.766 24.5504V24.1819C103.766 24.1252 103.747 24.0969 103.71 24.0969C103.672 24.078 103.634 24.0969 103.596 24.1536C103.313 24.5126 102.963 24.7583 102.547 24.8905C102.151 25.0417 101.678 25.1173 101.13 25.1173C99.9964 25.1173 99.0515 24.7677 98.2957 24.0685C97.5398 23.3693 97.1618 22.2922 97.1618 20.8372V10.5761C97.1618 10.4816 97.1902 10.4061 97.2469 10.3494C97.3225 10.2738 97.4075 10.236 97.502 10.236H101.527C101.622 10.236 101.697 10.2738 101.754 10.3494C101.829 10.4061 101.867 10.4816 101.867 10.5761V19.7884C101.867 20.6387 102.17 21.0639 102.774 21.0639C103.095 21.0639 103.341 20.9505 103.511 20.7238C103.681 20.497 103.766 20.1758 103.766 19.76V10.5761Z" fill="white"/>
<path d="M117.573 10.0092C120.162 10.0092 121.456 11.6438 121.456 14.913V20.2136C121.456 23.4827 120.162 25.1173 117.573 25.1173C116.477 25.1173 115.617 24.7205 114.993 23.9268C114.956 23.889 114.918 23.8796 114.88 23.8985C114.842 23.8985 114.823 23.9268 114.823 23.9835V24.5504C114.823 24.6449 114.785 24.7299 114.71 24.8055C114.653 24.8622 114.578 24.8905 114.483 24.8905H110.458C110.364 24.8905 110.279 24.8622 110.203 24.8055C110.146 24.7299 110.118 24.6449 110.118 24.5504V5.38892C110.118 5.29444 110.146 5.21885 110.203 5.16216C110.279 5.08657 110.364 5.04878 110.458 5.04878H114.483C114.578 5.04878 114.653 5.08657 114.71 5.16216C114.785 5.21885 114.823 5.29444 114.823 5.38892V11.2281C114.823 11.2659 114.833 11.2848 114.852 11.2848C114.908 11.2848 115.022 11.1997 115.192 11.0297C115.796 10.3494 116.59 10.0092 117.573 10.0092ZM116.751 15.2815C116.751 14.9035 116.666 14.6012 116.496 14.3744C116.326 14.1476 116.099 14.0343 115.815 14.0343C115.513 14.0343 115.267 14.1476 115.078 14.3744C114.908 14.6012 114.823 14.9035 114.823 15.2815V19.8451C114.823 20.223 114.908 20.5254 115.078 20.7521C115.267 20.9789 115.513 21.0923 115.815 21.0923C116.099 21.0923 116.326 20.9789 116.496 20.7521C116.666 20.5254 116.751 20.223 116.751 19.8451V15.2815Z" fill="white"/>
<path d="M134.187 18.5128C134.187 18.6073 134.149 18.6924 134.073 18.7679C134.017 18.8246 133.941 18.853 133.847 18.853H127.667C127.573 18.853 127.526 18.9002 127.526 18.9947V19.8451C127.526 20.223 127.611 20.5254 127.781 20.7521C127.97 20.9789 128.215 21.0923 128.518 21.0923C128.782 21.0923 128.999 20.9978 129.17 20.8088C129.34 20.6198 129.453 20.3836 129.51 20.1002C129.529 19.8923 129.651 19.7884 129.878 19.7884L133.79 20.0151C133.884 20.0151 133.96 20.0529 134.017 20.1285C134.092 20.1852 134.121 20.2703 134.102 20.3836C133.932 23.5394 132.07 25.1173 128.518 25.1173C126.722 25.1173 125.324 24.6921 124.322 23.8418C123.321 22.9725 122.82 21.7631 122.82 20.2136V14.913C122.82 13.439 123.321 12.258 124.322 11.3698C125.343 10.4627 126.741 10.0092 128.518 10.0092C130.294 10.0092 131.683 10.4533 132.684 11.3415C133.686 12.2296 134.187 13.4201 134.187 14.913V18.5128ZM128.518 14.0343C128.215 14.0343 127.97 14.1476 127.781 14.3744C127.611 14.6012 127.526 14.9035 127.526 15.2815V16.1602C127.526 16.2547 127.573 16.3019 127.667 16.3019H129.34C129.434 16.3019 129.481 16.2547 129.481 16.1602V15.2815C129.481 14.9224 129.387 14.6295 129.198 14.4028C129.028 14.1571 128.801 14.0343 128.518 14.0343Z" fill="white"/>
<path d="M24.1406 21.0938H5.85938C2.62846 21.0938 0 18.4652 0 15.2344V5.85938C0 2.62852 2.62846 0 5.85938 0H24.1406C27.3715 0 30 2.62852 30 5.85938V15.2344C30 18.4652 27.3715 21.0938 24.1406 21.0938ZM5.85938 2.34375C3.92086 2.34375 2.34375 3.92086 2.34375 5.85938V15.2344C2.34375 17.1729 3.92086 18.75 5.85938 18.75H24.1406C26.0791 18.75 27.6562 17.1729 27.6562 15.2344V5.85938C27.6562 3.92086 26.0791 2.34375 24.1406 2.34375H5.85938Z" fill="url(#paint0_linear_1561_315)"/>
<path d="M13.8281 16.4062C12.5358 16.4062 11.4844 15.3548 11.4844 14.0625V7.03125C11.4844 5.73891 12.5358 4.6875 13.8281 4.6875C14.3393 4.6875 14.8253 4.84939 15.2336 5.15561L19.9212 8.67123H19.9212C20.5087 9.11191 20.8594 9.81305 20.8594 10.5469C20.8594 11.2807 20.5087 11.9818 19.9212 12.4225L15.2337 15.9381C14.8253 16.2444 14.3393 16.4062 13.8281 16.4062ZM18.5149 10.5463L13.8274 7.03066L13.8281 14.0625L18.5149 10.5475" fill="url(#paint1_linear_1561_315)"/>
<path d="M3.51562 30C1.57711 30 0 28.4229 0 26.4844C0 24.5459 1.57711 22.9688 3.51562 22.9688C5.45414 22.9688 7.03125 24.5459 7.03125 26.4844C7.03125 28.4229 5.45414 30 3.51562 30ZM3.51562 25.3125C2.86945 25.3125 2.34375 25.8382 2.34375 26.4844C2.34375 27.1305 2.86945 27.6562 3.51562 27.6562C4.1618 27.6562 4.6875 27.1305 4.6875 26.4844C4.6875 25.8382 4.1618 25.3125 3.51562 25.3125Z" fill="url(#paint2_linear_1561_315)"/>
<path d="M28.8281 27.6562H10.5469C9.89965 27.6562 9.375 27.1316 9.375 26.4844C9.375 25.8371 9.89965 25.3125 10.5469 25.3125H28.8281C29.4754 25.3125 30 25.8371 30 26.4844C30 27.1316 29.4754 27.6562 28.8281 27.6562Z" fill="url(#paint3_linear_1561_315)"/>
<defs>
<linearGradient id="paint0_linear_1561_315" x1="15" y1="0" x2="15" y2="21.0938" gradientUnits="userSpaceOnUse">
<stop stop-color="#0048FF"/>
<stop offset="1" stop-color="#FE52FB"/>
</linearGradient>
<linearGradient id="paint1_linear_1561_315" x1="16.1719" y1="4.6875" x2="16.1719" y2="16.4062" gradientUnits="userSpaceOnUse">
<stop stop-color="#0048FF"/>
<stop offset="1" stop-color="#FE52FB"/>
</linearGradient>
<linearGradient id="paint2_linear_1561_315" x1="3.51562" y1="22.9688" x2="3.51562" y2="30" gradientUnits="userSpaceOnUse">
<stop stop-color="#0048FF"/>
<stop offset="1" stop-color="#FE52FB"/>
</linearGradient>
<linearGradient id="paint3_linear_1561_315" x1="19.6875" y1="25.3125" x2="19.6875" y2="27.6562" gradientUnits="userSpaceOnUse">
<stop stop-color="#0048FF"/>
<stop offset="1" stop-color="#FE52FB"/>
</linearGradient>
</defs>
</svg>
