<svg width="12" height="12" viewBox="0 0 12 12" fill="none" xmlns="http://www.w3.org/2000/svg">
<path d="M3.37516 10.0206L6.00016 8.43723L8.62516 10.0414L7.93766 7.04139L10.2502 5.04139L7.2085 4.77056L6.00016 1.93723L4.79183 4.74973L1.75016 5.02056L4.06266 7.04139L3.37516 10.0206ZM6.00016 9.41806L2.97516 11.2447C2.88627 11.2886 2.80377 11.3064 2.72766 11.2981C2.65211 11.2892 2.5785 11.2631 2.50683 11.2197C2.43461 11.1753 2.38016 11.1125 2.3435 11.0314C2.30683 10.9503 2.3035 10.8617 2.3335 10.7656L3.1385 7.34056L0.475996 5.03223C0.400996 4.97112 0.351552 4.89806 0.327663 4.81306C0.303774 4.72806 0.309052 4.64667 0.343496 4.56889C0.377941 4.49112 0.423774 4.42723 0.480996 4.37723C0.538774 4.32889 0.616552 4.29612 0.71433 4.27889L4.22766 3.97223L5.59766 0.728894C5.63544 0.637227 5.68989 0.571115 5.761 0.53056C5.83211 0.490004 5.91183 0.469727 6.00016 0.469727C6.0885 0.469727 6.1685 0.490004 6.24016 0.53056C6.31183 0.571115 6.366 0.637227 6.40266 0.728894L7.77266 3.97223L11.2852 4.27889C11.3835 4.29556 11.4616 4.32862 11.5193 4.37806C11.5771 4.42695 11.6232 4.49056 11.6577 4.56889C11.6916 4.64667 11.6966 4.72806 11.6727 4.81306C11.6488 4.89806 11.5993 4.97112 11.5243 5.03223L8.86183 7.34056L9.66683 10.7656C9.69794 10.8606 9.69489 10.9489 9.65766 11.0306C9.62044 11.1122 9.56572 11.175 9.4935 11.2189C9.42239 11.2633 9.34877 11.2897 9.27266 11.2981C9.19711 11.3064 9.11489 11.2886 9.026 11.2447L6.00016 9.41806Z" fill="white" fill-opacity="0.8"/>
</svg>
