<svg width="16" height="14" viewBox="0 0 16 14" fill="none" xmlns="http://www.w3.org/2000/svg">
<path d="M16 4.443L8 13.6487L0 4.443L8 3.34309L16 4.443Z" fill="#CE0045"/>
<path d="M16 4.443L8 13.6487V3.34309L16 4.443Z" fill="#A00031"/>
<path d="M12.0157 2.39719L11.0686 4.443L8 2.61303L4.93144 4.443L4 2.39719V0.35141H12L12.0157 2.39719Z" fill="#CE0045"/>
<path d="M12.0157 2.39719L11.0686 4.443L8 2.61303V0.35141H12L12.0157 2.39719Z" fill="#A00031"/>
<path d="M11.0685 4.443H4.9314L7.99996 0.35141L11.0685 4.443Z" fill="#FE7E52"/>
<path d="M11.0686 4.443H8V0.35141L11.0686 4.443Z" fill="#F53241"/>
<path d="M4 0.351349L0 4.44288H4.93138L4 0.351349Z" fill="#FE7E52"/>
<path d="M11.0686 4.44288H16L12 0.351349L11.0686 4.44288Z" fill="#F53241"/>
<path d="M11.0685 4.44301L7.99996 13.6487L4.9314 4.44301H11.0685Z" fill="#F53241"/>
<path d="M11.0686 4.44301L8 13.6487V4.44301H11.0686Z" fill="#CE0045"/>
</svg>
