<svg width="16" height="14" viewBox="0 0 16 14" fill="none" xmlns="http://www.w3.org/2000/svg">
<path d="M3 4.96875C3.29167 4.98958 3.53125 5.09375 3.71875 5.28125C3.90625 5.46875 4 5.69792 4 5.96875V12.9062C4 13.1771 3.90625 13.4062 3.71875 13.5938C3.53125 13.7812 3.29167 13.875 3 13.875H1C0.708333 13.875 0.46875 13.7812 0.28125 13.5938C0.09375 13.4271 0 13.1979 0 12.9062V5.9375C0 5.66667 0.09375 5.4375 0.28125 5.25C0.46875 5.0625 0.708333 4.96875 1 4.96875H3ZM16 6.09375C15.9792 6.84375 15.6667 7.42708 15.0625 7.84375C15.0833 8.01042 15.0938 8.17708 15.0938 8.34375C15.0729 9.07292 14.7708 9.64583 14.1875 10.0625C14.2083 10.1458 14.2188 10.2396 14.2188 10.3438C14.1979 11.0729 13.8958 11.6458 13.3125 12.0625C13.25 12.6042 13.0312 13.0625 12.6562 13.4375C12.2604 13.7917 11.7812 13.9792 11.2188 14H9.59375C8.42708 13.9792 7.375 13.6354 6.4375 12.9688L5.3125 12.0938C5.10417 11.9271 5 11.7292 5 11.5C5.04167 11.0417 5.29167 10.7917 5.75 10.75C5.91667 10.75 6.0625 10.8021 6.1875 10.9062L7.34375 11.75C8.01042 12.25 8.76042 12.5 9.59375 12.5H11.2188C11.5729 12.4583 11.7708 12.2604 11.8125 11.9062C11.8125 11.8646 11.8125 11.8229 11.8125 11.7812C11.7917 11.7396 11.7812 11.6875 11.7812 11.625C11.8229 11.2292 11.9896 10.9896 12.2812 10.9062C12.5312 10.8229 12.6771 10.6354 12.7188 10.3438C12.6979 10.2188 12.6667 10.1146 12.625 10.0312C12.5625 9.94792 12.5208 9.82292 12.5 9.65625C12.5208 9.40625 12.5833 9.23958 12.6875 9.15625C12.8125 9.05208 12.9479 8.97917 13.0938 8.9375C13.3854 8.875 13.5521 8.67708 13.5938 8.34375C13.5938 8.15625 13.5417 8.02083 13.4375 7.9375C13.3333 7.83333 13.2708 7.66667 13.25 7.4375C13.2917 7 13.5208 6.75 13.9375 6.6875C14.2917 6.625 14.4792 6.42708 14.5 6.09375C14.4583 5.73958 14.2604 5.53125 13.9062 5.46875H9.59375C9.15625 5.44792 8.90625 5.20833 8.84375 4.75C8.84375 4.625 8.875 4.5 8.9375 4.375C9.22917 3.875 9.4375 3.40625 9.5625 2.96875C9.6875 2.55208 9.75 2.28125 9.75 2.15625C9.75 2.01042 9.69792 1.86458 9.59375 1.71875C9.48958 1.59375 9.3125 1.52083 9.0625 1.5C8.83333 1.5 8.66667 1.58333 8.5625 1.75C8.45833 1.91667 8.35417 2.14583 8.25 2.4375C8.125 2.8125 7.91667 3.26042 7.625 3.78125C7.33333 4.28125 6.86458 4.80208 6.21875 5.34375C6.07292 5.44792 5.91667 5.5 5.75 5.5C5.29167 5.45833 5.04167 5.20833 5 4.75C5 4.45833 5.13542 4.22917 5.40625 4.0625C5.59375 3.9375 5.8125 3.70833 6.0625 3.375C6.3125 3.0625 6.58333 2.55208 6.875 1.84375C7.02083 1.40625 7.25 0.989583 7.5625 0.59375C7.85417 0.21875 8.35417 0.0208333 9.0625 0C9.75 0.0208333 10.2812 0.25 10.6562 0.6875C11.0521 1.10417 11.25 1.59375 11.25 2.15625C11.25 2.57292 11.0938 3.1875 10.7812 4H13.9062C14.4896 4.02083 14.9792 4.22917 15.375 4.625C15.7708 5.02083 15.9792 5.51042 16 6.09375Z" fill="#D9D9D9"/>
</svg>
