<svg width="40" height="40" viewBox="0 0 40 40" fill="none" xmlns="http://www.w3.org/2000/svg">
<path d="M16.8796 39.7903L32.3084 13.2244C32.6576 12.6229 32.1623 11.8827 31.473 11.9765L21.2102 13.3714L23.6623 0.497792C23.745 0.0638074 23.1855 -0.184864 22.9187 0.167245L7.7489 20.1915C7.30702 20.7747 7.77492 21.604 8.50257 21.5274L19.8173 20.3364L16.108 39.5011C16.0185 39.9633 16.6431 40.1975 16.8796 39.7903Z" fill="white"/>
<path d="M12.4923 18.7721C12.209 18.7947 12.0208 18.485 12.1714 18.2439L23.5135 0.0965952C23.3447 -0.0369204 23.0791 -0.0455142 22.9183 0.16683L7.74841 20.1911C7.30654 20.7743 7.77443 21.6035 8.50208 21.527L19.8168 20.336L16.1075 39.5007C16.0575 39.7592 16.2318 39.9411 16.4357 39.9846L22.7918 19.8715C23.0898 18.9288 22.3381 17.9843 21.3526 18.0632L12.4923 18.7721Z" fill="#FE52FB"/>
</svg>
