<svg width="18" height="21" viewBox="0 0 18 21" fill="none" xmlns="http://www.w3.org/2000/svg">
<path d="M8.99902 1.15039C11.4971 1.15039 13.5418 3.19437 13.542 5.69238C13.542 8.19056 11.4972 10.2354 8.99902 10.2354C6.50104 10.2352 4.45703 8.19045 4.45703 5.69238C4.45723 3.19448 6.50112 1.15057 8.99902 1.15039Z" stroke="white" stroke-width="1.3"/>
<path d="M5.2041 11.9092C5.22327 11.9054 5.26409 11.9095 5.30469 11.9277L5.34375 11.9502L5.34863 11.9531C6.41552 12.7405 7.68474 13.1464 8.99902 13.1465C10.2313 13.1465 11.4247 12.7901 12.4482 12.0967L12.6504 11.9531L12.6553 11.9502C12.6717 11.9383 12.7412 11.9086 12.8506 11.918C14.3678 12.1312 15.7302 12.9468 16.6689 14.1924L16.8516 14.4482L16.8555 14.4531C17.0155 14.6843 17.152 14.9246 17.2607 15.1719C17.1428 15.3756 17.0147 15.573 16.8711 15.7705L16.7158 15.9775L16.708 15.9883C16.4915 16.282 16.2481 16.5571 15.9902 16.8262L15.7285 17.0938C15.4317 17.3905 15.0922 17.6871 14.7559 17.9395C13.0785 19.1922 11.0607 19.8506 8.97656 19.8506C6.89732 19.8505 4.88498 19.1944 3.20996 17.9473C2.84577 17.6514 2.51261 17.3807 2.22559 17.0938L2.21875 17.0859L2.21094 17.0801L1.95215 16.8242C1.78377 16.6506 1.62475 16.4702 1.47168 16.2803L1.24609 15.9883L1.24316 15.9834L0.944336 15.5703C0.86428 15.4535 0.788425 15.3348 0.71875 15.2178C0.835661 14.9569 0.982086 14.685 1.14258 14.4531L1.14355 14.4541L1.15137 14.4424C2.06835 13.0567 3.53571 12.1401 5.16504 11.916L5.18457 11.9131L5.2041 11.9092Z" stroke="white" stroke-width="1.3"/>
</svg>
