<svg width="14" height="14" viewBox="0 0 14 14" fill="none" xmlns="http://www.w3.org/2000/svg">
<path d="M7.00005 9.15654C8.19041 9.15654 9.15538 8.19157 9.15538 7.00121C9.15538 5.81086 8.19041 4.84589 7.00005 4.84589C5.8097 4.84589 4.84473 5.81086 4.84473 7.00121C4.84473 8.19157 5.8097 9.15654 7.00005 9.15654Z" fill="#808080"/>
<path d="M13.7853 6.4042C12.1285 4.40217 9.62066 2.47504 7.00003 2.47504C4.37888 2.47504 1.87043 4.40351 0.214792 6.4042C-0.0715972 6.75012 -0.0715972 7.25232 0.214792 7.59825C0.631039 8.10124 1.50368 9.07222 2.66917 9.92061C5.60443 12.0574 8.38916 12.0621 11.3309 9.92061C12.4964 9.07222 13.369 8.10124 13.7853 7.59825C14.0708 7.25299 14.0723 6.75126 13.7853 6.4042ZM7.00003 3.98376C8.66394 3.98376 10.0175 5.33731 10.0175 7.00122C10.0175 8.66513 8.66394 10.0187 7.00003 10.0187C5.33612 10.0187 3.98257 8.66513 3.98257 7.00122C3.98257 5.33731 5.33612 3.98376 7.00003 3.98376Z" fill="#808080"/>
</svg>
